<?xml version="1.0" standalone="no"?><svg xmlns="http://www.w3.org/2000/svg" viewBox="0 0 1440 320"><path fill="#89B7F7" fill-opacity="1" d="M0,320L40,293.3C80,267,160,213,240,181.3C320,149,400,139,480,149.3C560,160,640,192,720,192C800,192,880,160,960,170.7C1040,181,1120,235,1200,229.3C1280,224,1360,160,1400,128L1440,96L1440,320L1400,320C1360,320,1280,320,1200,320C1120,320,1040,320,960,320C880,320,800,320,720,320C640,320,560,320,480,320C400,320,320,320,240,320C160,320,80,320,40,320L0,320Z"></path></svg>