<?xml version="1.0" standalone="no"?><svg xmlns="http://www.w3.org/2000/svg" viewBox="0 0 1440 320"><path fill="#619CEC" fill-opacity="0.9" d="M0,96L40,90.7C80,85,160,75,240,74.7C320,75,400,85,480,122.7C560,160,640,224,720,224C800,224,880,160,960,165.3C1040,171,1120,245,1200,256C1280,267,1360,213,1400,186.7L1440,160L1440,320L1400,320C1360,320,1280,320,1200,320C1120,320,1040,320,960,320C880,320,800,320,720,320C640,320,560,320,480,320C400,320,320,320,240,320C160,320,80,320,40,320L0,320Z"></path></svg>